<mxfile host="app.diagrams.net" agent="Mozilla/5.0 (Windows NT 10.0; Win64; x64) AppleWebKit/537.36 (KHTML, like Gecko) Chrome/130.0.0.0 Safari/537.36 Edg/130.0.0.0" version="24.8.2">
  <diagram name="Page-1" id="DX39tmOmolShICaVAGJy">
    <mxGraphModel dx="1042" dy="565" grid="1" gridSize="10" guides="1" tooltips="1" connect="1" arrows="1" fold="1" page="1" pageScale="1" pageWidth="850" pageHeight="1100" math="0" shadow="0">
      <root>
        <mxCell id="0" />
        <mxCell id="1" parent="0" />
        <mxCell id="qCjNcv8Ia3v7E2IGuloR-1" value="ผู้ใช้งานระบบ" style="swimlane;startSize=30;fontSize=16;" vertex="1" parent="1">
          <mxGeometry x="150" y="170" width="300" height="460" as="geometry" />
        </mxCell>
        <mxCell id="qCjNcv8Ia3v7E2IGuloR-4" value="Container" style="swimlane;startSize=30;fontSize=16;" vertex="1" parent="1">
          <mxGeometry x="450" y="170" width="300" height="460" as="geometry" />
        </mxCell>
      </root>
    </mxGraphModel>
  </diagram>
</mxfile>
